<?xml version="1.0" standalone="no"?>
<!DOCTYPE svg PUBLIC "-//W3C//DTD SVG 20010904//EN"
 "http://www.w3.org/TR/2001/REC-SVG-20010904/DTD/svg10.dtd">
<svg version="1.0" xmlns="http://www.w3.org/2000/svg"
 width="500.000000pt" height="500.000000pt" viewBox="0 0 500.000000 500.000000"
 preserveAspectRatio="xMidYMid meet">
<metadata>
Created by potrace 1.16, written by Peter Selinger 2001-2019
</metadata>
<g transform="translate(0.000000,500.000000) scale(0.100000,-0.100000)"
fill="#000000" stroke="none">
<path d="M2305 4757 c-22 -18 -36 -55 -76 -192 -54 -190 -54 -189 -36 -179 6
4 4 -1 -5 -11 -9 -10 -54 -29 -100 -42 -46 -13 -119 -40 -163 -60 -44 -19 -90
-37 -103 -40 -17 -4 -55 16 -148 77 -69 46 -127 87 -131 92 -3 5 54 -30 125
-78 98 -65 137 -85 154 -81 13 3 59 21 103 40 44 20 117 47 162 60 46 13 86
26 89 30 21 20 -226 -62 -304 -102 -23 -11 -50 -21 -60 -21 -10 0 -85 45 -166
100 -144 98 -183 120 -135 80 l24 -20 -32 16 c-36 17 -56 11 -108 -35 l-30
-26 25 28 c14 16 41 37 60 48 19 10 31 18 25 19 -18 0 -68 -36 -180 -132 -60
-51 -116 -105 -124 -119 -14 -25 -11 -35 61 -198 41 -95 79 -171 83 -171 3 1
10 -2 13 -6 4 -4 2 -4 -4 -1 -6 4 -16 -5 -23 -19 -14 -32 -14 -37 2 -28 7 4 9
3 4 -2 -5 -5 -14 -9 -19 -9 -6 0 -13 -6 -16 -14 -3 -9 0 -11 8 -6 9 5 11 4 6
-4 -4 -6 -11 -9 -16 -6 -5 3 -16 -5 -24 -17 -19 -26 -21 -42 -4 -32 7 4 8 3 4
-5 -4 -6 -11 -9 -16 -6 -12 8 -43 -53 -34 -67 4 -7 3 -8 -5 -4 -8 5 -21 -14
-41 -57 -34 -75 -19 -69 -220 -89 -74 -7 -126 -14 -115 -16 11 -1 83 4 160 12
122 12 142 17 157 36 10 12 18 18 18 13 0 -6 -9 -18 -20 -28 -15 -13 -60 -22
-201 -37 -101 -10 -190 -24 -198 -31 -14 -10 -14 -10 -3 5 8 9 26 19 40 21
l27 4 -27 2 c-43 2 -73 -43 -87 -135 -7 -44 -17 -95 -22 -114 -5 -19 -8 -46
-8 -60 1 -15 7 -2 15 30 l13 55 -7 -55 c-3 -30 -7 -72 -7 -92 0 -42 -11 -38
-18 7 l-4 30 -2 -32 c-2 -46 21 -63 201 -154 177 -89 157 -63 178 -230 6 -47
19 -117 30 -157 11 -39 17 -79 13 -88 -4 -12 -3 -15 5 -10 23 14 11 0 -35 -44
l-48 -45 40 45 c22 25 -13 -7 -78 -70 -64 -63 -117 -119 -117 -125 0 -5 28 17
62 50 l63 60 -65 -68 c-64 -66 -78 -79 -64 -54 5 8 2 8 -9 -2 -9 -7 -17 -22
-17 -33 0 -27 39 -100 50 -93 5 3 12 0 16 -6 4 -8 3 -9 -4 -5 -16 10 -15 1 3
-35 9 -16 20 -27 25 -24 5 3 12 0 16 -6 4 -8 3 -9 -4 -5 -15 9 -15 1 -1 -25 5
-11 15 -16 21 -13 7 4 8 3 4 -4 -9 -14 22 -75 34 -67 5 3 12 0 16 -6 5 -8 3
-9 -6 -4 -24 15 -5 -18 22 -38 l26 -20 174 44 c95 24 184 43 197 42 14 -1 49
-26 90 -65 67 -66 133 -121 184 -153 49 -31 29 -9 -27 29 -29 20 -62 46 -72
58 -11 11 18 -7 64 -41 45 -35 82 -65 82 -67 0 -3 -4 -2 -10 1 -6 4 -9 -15 -8
-52 l1 -58 7 50 c7 48 7 48 7 10 1 -22 -5 -107 -12 -190 l-14 -150 4 140 c2
108 1 123 -5 65 -4 -41 -8 -105 -9 -141 -1 -59 2 -68 27 -91 28 -25 300 -129
337 -128 21 1 71 37 63 45 -3 3 -13 -4 -23 -15 -10 -11 -28 -20 -39 -20 -36 0
-310 102 -331 124 l-20 20 20 -15 c25 -20 303 -119 331 -119 11 0 29 9 39 20
9 10 22 18 27 17 6 -1 13 4 16 12 3 10 0 11 -9 5 -12 -7 -12 -5 0 9 16 20 26
23 15 5 -5 -9 -2 -9 9 1 20 16 23 36 5 25 -8 -4 -10 -3 -5 2 5 5 12 9 15 9 13
0 32 16 32 27 0 6 -7 5 -17 -3 -16 -13 -17 -12 -5 3 8 10 19 16 24 15 6 -1 13
4 16 12 3 10 0 11 -9 5 -12 -7 -12 -5 0 9 16 20 26 23 15 5 -5 -9 -2 -9 9 1
20 16 23 36 5 25 -8 -4 -10 -3 -5 2 5 5 14 9 19 9 6 0 13 6 16 14 3 9 0 11 -9
5 -12 -7 -12 -5 0 9 16 20 26 23 15 5 -5 -9 -2 -9 9 1 20 16 23 36 5 25 -7 -4
-4 3 8 15 20 21 28 22 224 22 196 0 204 -1 224 -22 12 -12 15 -18 7 -14 -9 5
-12 3 -9 -6 3 -8 10 -14 16 -14 5 0 14 -4 19 -9 5 -5 3 -6 -4 -2 -19 11 -16
-9 4 -25 11 -10 14 -10 9 -1 -11 18 -1 15 15 -5 12 -14 12 -16 0 -9 -9 6 -12
5 -9 -5 3 -8 10 -13 16 -12 5 1 16 -5 24 -15 12 -15 11 -16 -4 -3 -11 8 -18 9
-18 3 0 -11 19 -27 32 -27 3 0 10 -4 15 -9 5 -5 3 -6 -4 -2 -19 11 -16 -9 4
-25 11 -10 14 -10 9 -1 -11 18 -1 15 15 -5 12 -14 12 -16 0 -9 -9 6 -12 5 -9
-5 3 -8 10 -13 16 -12 5 1 16 -5 24 -15 12 -15 11 -16 -4 -3 -10 7 -18 9 -18
3 0 -12 25 -34 32 -27 3 3 13 -4 23 -15 10 -11 28 -20 41 -20 27 0 289 95 324
117 l25 16 -20 -24 c-16 -20 -15 -20 9 3 l29 27 -13 195 c-8 125 -17 193 -23
189 -6 -3 -7 -1 -3 6 4 6 40 35 79 64 40 30 107 86 149 125 43 40 80 72 83 72
3 0 87 -20 186 -45 139 -35 184 -43 199 -35 11 6 20 8 20 6 0 -3 -9 -10 -20
-16 -15 -8 -60 0 -199 35 -99 25 -183 45 -186 45 -2 0 -42 -34 -87 -76 -46
-42 -111 -96 -145 -121 -35 -25 -63 -47 -63 -50 0 -11 131 90 206 160 46 42
86 77 89 77 3 0 87 -21 187 -46 l182 -45 25 20 c14 10 25 24 23 31 -1 6 2 9 7
6 6 -4 21 13 35 37 28 48 32 62 14 51 -7 -4 -8 -3 -4 5 4 6 11 9 16 6 5 -3 16
8 25 24 18 36 19 45 3 35 -7 -4 -8 -3 -4 5 4 6 11 9 16 6 5 -3 16 8 25 24 18
36 19 45 3 35 -7 -4 -8 -3 -4 5 4 6 11 9 16 6 10 -6 30 26 30 48 0 17 -51 86
-64 87 -6 0 3 -15 19 -32 17 -18 -1 -4 -38 32 -37 35 -67 67 -67 69 0 3 18
-13 40 -34 22 -21 40 -35 40 -29 0 5 -44 52 -97 104 -54 52 -75 70 -48 40 l50
-55 -58 55 c-55 52 -69 68 -47 55 16 -10 12 6 -5 19 -12 10 -12 20 5 76 10 36
19 58 19 49 1 -9 -6 -38 -14 -64 -8 -27 -12 -51 -10 -53 11 -12 60 204 52 234
-3 11 -6 5 -7 -16 -1 -19 -6 -46 -11 -60 -7 -21 -8 -19 -4 10 3 19 9 75 15
124 5 49 14 94 19 99 6 6 6 -5 0 -29 -4 -22 -8 -55 -8 -74 1 -39 5 -29 14 43
l6 48 157 78 c180 91 203 108 201 154 l-2 32 -4 -30 c-8 -56 -18 -44 -19 23
-1 48 0 59 6 37 15 -58 10 -1 -11 118 -11 66 -24 127 -29 136 -16 31 -48 53
-72 48 -22 -4 -21 -4 3 -6 15 0 33 -9 40 -18 12 -16 12 -17 -2 -5 -9 7 -95 20
-198 31 -142 14 -186 22 -201 36 -11 10 -20 22 -20 28 0 5 8 -1 18 -13 15 -19
35 -24 157 -36 77 -8 149 -13 160 -12 11 2 -43 9 -120 17 -77 7 -150 16 -162
19 -15 5 -38 39 -76 112 -29 58 -58 105 -64 105 -6 0 -15 4 -20 9 -5 5 -2 6 6
1 9 -5 12 -3 9 6 -3 8 -10 14 -16 14 -5 0 -14 4 -19 9 -5 5 -3 6 5 2 18 -11
15 9 -5 25 -15 12 -16 12 -8 -1 8 -13 7 -13 -8 -1 -18 14 -23 26 -8 16 6 -3 7
9 4 30 -5 29 6 62 66 194 39 87 71 167 71 178 0 10 -21 39 -47 64 -87 83 -244
209 -261 209 -9 0 -86 -47 -171 -105 -85 -58 -163 -105 -173 -105 -10 0 -37
10 -60 21 -78 40 -325 122 -304 102 3 -4 43 -17 89 -30 45 -13 118 -40 162
-60 121 -53 113 -54 226 22 56 36 99 62 95 57 -3 -5 -48 -37 -100 -72 -108
-70 -101 -70 -221 -17 -44 20 -117 47 -163 60 -46 13 -91 32 -100 42 -10 11
-12 15 -3 10 10 -6 13 -4 9 6 -3 8 -13 44 -23 81 -10 37 -21 65 -26 62 -11 -6
-66 178 -61 203 3 15 0 15 -203 17 -93 0 -179 -3 -190 -7 -20 -9 -20 -8 -1 7
16 13 49 16 179 16 90 0 168 -5 180 -11 21 -10 21 -10 3 5 -16 13 -50 16 -182
16 -155 0 -164 -1 -189 -23z m312 -778 c157 -17 364 -88 463 -159 32 -23 45
-26 34 -8 -12 19 82 -52 113 -85 18 -20 10 -16 -22 12 -27 24 -59 47 -70 53
-11 5 -6 -1 10 -14 17 -12 66 -56 110 -98 44 -41 69 -63 56 -47 -36 41 -20 33
20 -10 18 -20 26 -31 17 -24 -26 19 -22 -2 4 -25 12 -10 18 -13 14 -6 -10 18
-1 15 15 -5 12 -14 12 -16 0 -9 -9 6 -12 4 -9 -5 3 -8 10 -14 15 -14 6 0 15
-4 20 -9 5 -5 2 -6 -6 -1 -9 5 -12 3 -9 -6 3 -8 10 -14 15 -14 6 0 15 -4 20
-9 5 -5 3 -6 -4 -2 -19 11 -16 3 23 -68 45 -83 89 -211 110 -323 12 -66 15
-123 11 -228 -6 -172 -35 -292 -104 -433 -26 -53 -49 -101 -51 -106 -3 -5 2
-5 9 -1 8 5 11 4 6 -1 -5 -5 -14 -9 -19 -9 -6 0 -13 -6 -16 -14 -3 -9 0 -11 9
-6 8 5 11 4 6 -1 -5 -5 -14 -9 -19 -9 -6 0 -13 -6 -16 -14 -3 -9 0 -11 9 -6 8
5 11 4 6 -1 -5 -5 -12 -9 -15 -9 -13 0 -32 -16 -32 -27 0 -7 6 -6 15 2 26 22
16 4 -12 -21 -21 -18 -24 -19 -13 -4 11 15 8 14 -13 -4 -30 -27 -37 -51 -9
-31 9 7 -14 -18 -53 -55 -136 -131 -299 -221 -494 -272 -81 -22 -120 -26 -246
-27 -208 -1 -360 33 -525 120 -59 31 -136 85 -100 69 8 -3 2 4 -14 17 -16 13
-46 38 -67 56 -38 33 -61 43 -39 17 29 -34 1 -11 -50 42 -30 31 -47 51 -37 44
28 -21 20 3 -10 30 -15 13 -21 16 -14 7 19 -25 8 -22 -15 4 -10 12 -13 18 -6
14 18 -11 15 9 -5 25 -11 10 -14 10 -9 2 11 -19 1 -16 -15 4 -12 14 -12 16 0
9 9 -6 12 -4 9 5 -3 8 -10 14 -16 14 -5 0 -14 4 -19 9 -5 5 -2 6 6 1 16 -9 18
-14 -40 100 -85 166 -110 266 -119 480 l-7 160 -1 -135 c-1 -96 4 -160 16
-223 10 -48 15 -84 11 -80 -30 31 -51 355 -30 458 8 35 9 36 10 11 1 -42 7
-29 14 29 4 34 3 42 -3 25 -6 -20 -8 -21 -8 -5 0 11 4 31 8 45 7 21 8 22 9 5
1 -11 13 14 26 55 13 41 23 76 21 78 -2 1 -8 -11 -14 -27 -6 -17 -13 -31 -16
-31 -3 0 2 20 12 45 9 24 19 40 22 35 3 -5 20 20 38 56 18 36 30 70 26 75 -3
5 0 8 7 7 6 -2 14 3 17 11 3 9 0 11 -9 6 -8 -5 -11 -4 -6 1 5 5 14 9 20 9 5 0
12 6 15 14 3 9 0 11 -9 6 -8 -5 -11 -4 -6 1 5 5 14 9 20 9 5 0 12 6 15 14 3 8
0 11 -7 7 -17 -11 -13 0 6 15 15 12 16 12 8 -1 -5 -9 0 -8 13 4 24 21 31 46 7
26 -26 -22 -16 -4 12 21 21 18 24 19 13 4 -8 -11 24 16 70 60 47 43 89 83 94
87 6 4 7 8 3 8 -4 0 -26 -17 -49 -37 -29 -25 -35 -28 -18 -9 28 31 88 77 76
58 -11 -19 -1 -15 47 18 118 79 318 152 467 169 108 12 140 12 247 0z"/>
<path d="M2446 3830 c-38 -12 -104 -76 -122 -117 -20 -46 -20 -718 -1 -766 19
-45 88 -104 136 -117 41 -11 114 0 125 19 3 4 -14 2 -38 -6 -58 -19 -115 -4
-164 44 l-37 36 37 -31 c49 -41 101 -54 153 -41 22 6 48 12 57 13 25 3 57 35
79 78 18 34 19 63 19 387 0 222 -4 360 -11 378 -12 34 -79 104 -91 97 -5 -3
-24 0 -43 6 -53 18 -111 4 -159 -38 l-41 -36 35 37 c43 46 97 63 158 49 24 -5
40 -6 35 -1 -14 14 -95 19 -127 9z"/>
<path d="M1900 3600 c-42 -27 -90 -70 -90 -83 0 -5 8 -3 18 4 9 7 4 -1 -12
-19 -34 -36 -49 -44 -20 -9 17 20 16 20 -9 -2 -27 -24 -38 -49 -15 -35 7 4 8
3 4 -5 -4 -6 -11 -9 -16 -6 -5 3 -16 -5 -24 -17 -19 -26 -21 -42 -4 -32 7 4 8
3 4 -5 -4 -6 -11 -9 -16 -6 -18 11 -121 -227 -119 -274 0 -9 9 9 19 39 20 55
19 44 -5 -60 -10 -44 -13 -49 -15 -25 -2 28 -3 27 -11 -10 -13 -67 -10 -241 7
-322 17 -85 62 -205 73 -198 4 2 7 -6 7 -18 -1 -13 4 -21 12 -19 8 1 11 -2 7
-7 -8 -14 23 -73 35 -66 5 3 12 0 16 -6 5 -8 3 -9 -6 -4 -8 5 -11 3 -8 -6 3
-8 10 -14 15 -14 6 0 15 -4 20 -9 5 -5 3 -6 -4 -2 -7 4 -13 3 -13 -2 0 -12 25
-33 32 -27 3 3 13 -5 24 -17 15 -18 16 -20 2 -9 -10 7 -18 9 -18 3 0 -15 142
-145 205 -186 146 -97 297 -145 475 -151 l115 -4 -115 9 c-63 5 -151 18 -195
30 -78 20 -220 82 -260 114 -11 8 25 -7 80 -35 336 -167 703 -120 1004 129 65
54 68 56 21 12 -133 -125 -287 -203 -463 -235 -40 -7 -58 -14 -41 -14 49 -2
182 36 261 73 94 45 178 103 258 178 59 54 85 91 53 72 -7 -4 -4 2 6 14 23 26
34 29 15 5 -7 -10 -1 -7 14 6 30 27 38 52 10 30 -16 -13 -17 -12 -4 3 7 10 17
15 22 13 11 -8 31 33 23 47 -4 7 -3 8 4 4 14 -8 70 101 100 194 31 98 42 173
40 284 l-1 101 -8 -135 c-6 -119 -29 -244 -46 -260 -3 -3 -3 6 1 20 36 131 46
301 25 414 -6 32 -8 60 -6 63 3 2 10 -19 15 -49 5 -29 10 -42 11 -28 3 66
-105 350 -128 336 -5 -4 -13 -1 -17 5 -5 8 -3 9 6 4 8 -5 11 -3 8 6 -3 8 -10
14 -16 14 -5 0 -14 4 -19 9 -5 5 -3 6 5 2 18 -11 15 9 -5 25 -15 12 -16 12 -8
-1 8 -13 7 -13 -8 -1 -18 15 -23 26 -7 16 26 -16 5 16 -43 67 -71 74 -106 91
-174 86 -40 -4 -62 -12 -90 -34 -58 -47 -76 -78 -81 -136 -4 -55 11 -113 27
-103 5 3 13 0 17 -6 4 -8 3 -9 -4 -5 -23 14 -11 -7 29 -52 22 -26 45 -47 49
-47 5 0 12 -4 17 -9 5 -5 3 -6 -4 -2 -17 10 -17 10 16 -57 79 -155 78 -333 -4
-521 -7 -15 -5 -17 6 -11 8 5 11 5 6 -1 -5 -5 -14 -9 -19 -9 -6 0 -13 -6 -16
-14 -3 -9 0 -11 9 -6 8 5 11 4 6 -1 -5 -5 -12 -9 -15 -10 -4 0 -34 -27 -67
-60 -33 -33 -71 -68 -85 -78 -24 -17 -24 -17 5 0 17 9 42 26 56 38 14 11 8 5
-12 -15 -77 -74 -215 -122 -349 -123 -130 0 -265 46 -345 119 l-40 36 50 -37
c57 -42 133 -78 185 -88 19 -3 5 5 -32 18 -86 30 -129 57 -203 126 -33 30 -53
46 -45 35 15 -20 14 -20 -8 -1 -23 20 -30 32 -11 20 7 -4 10 -3 7 2 -84 174
-98 220 -98 329 0 79 15 154 46 224 28 62 28 65 12 55 -8 -4 -10 -3 -5 2 5 5
14 9 19 9 6 0 13 6 16 14 3 9 0 11 -9 6 -8 -5 -11 -4 -6 1 5 5 12 9 15 9 12 0
89 89 106 122 37 72 9 165 -67 226 -51 41 -135 49 -187 17z"/>
<path d="M1255 731 c-48 -12 -87 -36 -129 -79 -24 -25 -35 -45 -31 -53 5 -8 4
-10 -3 -5 -19 11 -28 -31 -26 -125 1 -86 8 -114 24 -104 5 3 12 0 16 -6 4 -8
3 -9 -4 -5 -7 4 -12 3 -12 -1 0 -15 83 -90 120 -109 47 -25 143 -24 190 0 45
25 100 68 100 80 0 6 -15 -4 -32 -21 -101 -95 -243 -91 -333 9 l-30 33 35 -31
c55 -50 98 -67 165 -67 69 0 111 17 169 72 21 20 36 30 32 24 -16 -29 6 -11
24 20 18 29 30 78 12 50 -4 -6 -7 24 -7 67 0 43 3 73 7 67 5 -8 8 -7 8 3 0 20
-51 100 -64 100 -5 0 -1 -10 10 -22 10 -13 1 -7 -21 13 -60 55 -101 72 -170
72 -69 0 -110 -17 -170 -72 l-40 -36 35 38 c90 99 234 110 328 24 12 -11 22
-17 22 -12 0 10 -26 31 -70 54 -42 23 -113 33 -155 22z m144 -157 c14 -15 20
-23 12 -19 -11 7 -13 4 -6 -11 5 -10 9 -39 9 -64 0 -25 -4 -54 -9 -64 -6 -15
-5 -18 6 -12 8 4 -1 -6 -19 -23 -27 -26 -40 -31 -80 -31 -26 0 -53 4 -60 9 -7
4 12 7 45 5 l58 -3 -50 8 c-27 4 -59 12 -69 16 -14 6 -17 5 -12 -3 12 -19 1
-14 -20 10 -10 12 -13 18 -5 13 11 -7 13 -4 6 11 -12 25 -12 92 -1 123 6 18 5
22 -5 16 -8 -4 -2 5 12 20 49 50 139 50 188 -1z"/>
<path d="M1765 731 c-42 -10 -71 -27 -117 -69 -44 -40 -81 -105 -75 -130 4
-13 5 -12 6 4 0 11 8 29 15 40 13 17 13 14 1 -21 -8 -22 -14 -56 -14 -75 0
-19 6 -53 14 -75 12 -35 12 -38 -1 -21 -7 11 -15 29 -15 40 -1 16 -2 17 -6 4
-7 -27 33 -93 83 -137 64 -56 138 -78 210 -62 30 7 64 21 76 31 23 19 22 19
-15 1 -89 -45 -190 -32 -262 34 l-40 36 47 -34 c53 -39 132 -62 180 -52 36 8
138 52 138 61 0 16 -47 84 -58 84 -8 0 -25 -9 -39 -20 -34 -27 -107 -27 -150
0 -18 11 -33 22 -33 25 0 2 15 -4 33 -15 47 -29 114 -27 157 5 19 14 30 25 26
25 -4 0 -19 -9 -33 -20 -38 -30 -113 -27 -151 5 -16 13 -32 22 -35 19 -3 -3
-4 2 -1 13 2 10 0 32 -6 48 -9 28 -10 28 -5 -10 4 -34 3 -36 -6 -16 -12 31 -2
91 13 70 7 -10 8 -8 5 8 -3 12 0 21 5 20 6 -1 13 4 16 12 3 9 0 11 -8 6 -9 -5
-11 -4 -6 4 28 44 131 56 179 20 22 -16 34 -19 45 -12 20 12 30 39 11 28 -8
-5 -11 -4 -6 1 5 5 13 10 18 10 5 1 14 2 19 3 6 0 9 20 9 44 -1 23 -3 34 -6
25 -6 -23 -7 -23 -62 4 -33 16 -63 23 -106 22 -66 -1 -103 -16 -162 -66 -35
-29 -36 -30 -13 -4 70 79 188 104 278 60 25 -13 38 -16 31 -8 -13 16 -102 45
-133 43 -12 -1 -34 -4 -51 -8z"/>
<path d="M4135 731 c-47 -12 -87 -36 -129 -79 -24 -25 -35 -45 -31 -53 5 -8 4
-10 -3 -5 -21 13 -30 -37 -22 -115 5 -41 7 -76 5 -78 -4 -4 -12 41 -21 124 -8
74 -21 101 -73 148 -54 48 -65 48 -14 0 21 -21 28 -28 14 -17 -55 46 -85 54
-201 54 l-110 0 0 -230 0 -230 50 0 50 0 1 38 2 37 7 -35 7 -35 2 31 c1 31 2
32 61 36 69 5 129 40 167 97 23 33 33 70 12 41 -9 -12 -10 -12 -5 3 3 10 7 42
7 70 2 50 2 50 10 -18 8 -79 31 -150 47 -150 6 0 14 -4 19 -9 5 -5 3 -6 -4 -2
-27 15 -11 -12 30 -51 61 -59 101 -77 172 -77 64 0 123 23 158 62 18 20 15 48
-3 37 -5 -3 -12 0 -16 6 -4 8 -3 9 4 5 17 -10 15 6 -4 32 -8 12 -22 22 -30 22
-9 0 -12 5 -8 12 4 6 -4 3 -18 -8 -26 -19 -30 -35 -5 -18 7 5 4 1 -6 -9 -20
-18 -101 -24 -125 -8 -7 4 12 7 45 5 l58 -3 -50 8 c-27 4 -59 12 -69 16 -15 7
-17 5 -11 -6 5 -8 -1 -5 -13 5 -23 20 -30 32 -12 21 18 -11 10 15 -10 32 -20
17 -28 67 -12 77 4 2 7 -12 5 -32 l-2 -37 8 35 c4 19 11 46 15 59 6 18 5 22
-5 16 -8 -4 -2 5 12 20 44 45 139 51 178 9 15 -16 15 -16 -9 0 -13 9 -36 16
-50 15 -21 -1 -20 -2 8 -9 18 -4 42 -16 54 -26 12 -11 19 -14 16 -9 -3 6 0 16
8 23 8 7 14 9 14 5 1 -11 30 28 30 40 0 4 -5 5 -12 1 -7 -4 -8 -3 -4 5 4 6 11
9 16 6 5 -3 12 0 15 5 8 13 -20 47 -50 62 -12 6 -8 -1 11 -18 16 -16 23 -24
15 -18 -46 33 -90 47 -146 47 -69 0 -110 -17 -170 -72 l-40 -36 35 38 c43 47
78 67 150 83 30 6 44 12 30 12 -14 0 -38 -3 -55 -7z m-354 -142 c13 -11 19
-18 13 -15 -8 4 -10 -7 -7 -37 6 -52 -8 -67 -72 -75 l-45 -5 0 68 0 67 55 -4
c30 -3 52 -2 49 1 -3 3 -33 9 -67 12 l-62 6 56 1 c45 2 62 -2 80 -19z"/>
<path d="M760 720 c112 -6 165 -25 205 -71 l20 -24 -25 22 c-52 45 -109 63
-207 63 l-93 0 0 -230 0 -230 78 0 c44 0 100 7 127 14 26 8 51 14 55 13 12 -3
70 43 70 55 0 7 -17 -4 -37 -23 l-38 -34 40 43 c39 42 53 53 39 30 -5 -7 -3
-8 5 -3 15 8 41 67 40 87 0 7 -4 4 -9 -7 -5 -13 -7 -2 -3 30 3 32 -1 66 -11
95 -12 37 -13 42 0 26 7 -11 15 -29 15 -40 1 -16 2 -17 6 -4 6 23 -29 87 -69
125 -58 56 -110 73 -218 71 l-95 -1 105 -7z m84 -140 c48 -18 70 -79 53 -143
-6 -22 -5 -27 5 -22 7 4 -2 -7 -20 -24 -25 -24 -41 -31 -70 -30 l-37 2 43 6
c23 4 50 16 60 26 16 17 16 17 -8 1 -13 -9 -39 -16 -57 -16 l-33 0 0 105 c0
115 2 119 64 95z"/>
<path d="M2515 713 c-33 -17 -115 -92 -115 -106 0 -4 6 -5 13 -1 7 4 9 3 4 -2
-5 -5 -14 -9 -19 -9 -6 0 -17 -16 -24 -35 -62 -173 119 -378 293 -331 47 13
134 70 141 92 3 7 -11 0 -29 -17 -54 -50 -97 -68 -164 -68 -70 0 -124 24 -170
76 l-30 33 35 -31 c55 -50 98 -67 165 -67 69 0 111 17 169 72 21 20 35 30 31
22 -6 -10 -4 -12 4 -6 25 15 51 89 51 145 0 56 -26 130 -51 145 -8 6 -10 4 -4
-6 4 -8 -10 2 -31 22 -50 47 -75 59 -149 75 -76 17 -84 17 -120 -3z m194 -139
c14 -15 20 -23 12 -19 -11 7 -13 4 -6 -11 5 -10 9 -39 9 -64 0 -25 -4 -54 -9
-64 -6 -15 -5 -18 6 -12 8 4 -1 -6 -19 -23 -26 -25 -41 -31 -78 -31 -48 0 -91
17 -115 46 -11 14 -11 16 0 10 10 -7 11 -3 5 15 -5 13 -9 40 -9 59 0 19 4 46
9 59 6 18 5 22 -5 16 -8 -5 -3 4 10 18 14 15 29 27 34 27 5 0 1 -8 -10 -17
-10 -10 -13 -14 -6 -9 7 5 28 12 46 16 28 7 29 8 7 10 l-25 2 25 7 c38 11 90
-4 119 -35z"/>
<path d="M2000 660 l0 -50 68 -2 67 -2 -70 -6 -70 -6 58 -2 57 -2 2 -167 2
-168 6 170 6 170 2 -172 2 -173 50 0 50 0 2 173 2 172 6 -170 6 -170 2 168 2
167 58 2 57 2 -70 6 -70 6 68 2 67 2 0 50 0 50 -180 0 -180 0 0 -50z"/>
<path d="M2920 480 l0 -230 50 0 50 0 1 38 2 37 7 -35 7 -35 2 33 c1 28 4 32
30 32 22 0 31 -6 41 -29 13 -32 34 -41 98 -41 27 0 42 4 42 13 0 8 4 7 10 -3
17 -26 11 3 -13 61 -16 39 -27 54 -37 51 -8 -3 -13 -3 -10 -1 3 2 16 13 30 24
25 20 25 20 10 0 l-15 -20 24 20 c26 22 52 74 50 102 -1 12 -3 10 -9 -7 -5
-18 -7 -8 -7 35 0 43 2 53 7 35 8 -24 8 -25 9 -2 1 34 -22 74 -68 115 -54 48
-65 48 -14 0 21 -21 28 -28 14 -17 -55 46 -85 54 -201 54 l-110 0 0 -230z
m231 109 c13 -11 19 -18 13 -15 -8 4 -10 -7 -7 -37 6 -52 -8 -67 -72 -75 l-45
-5 0 68 0 67 55 -4 c30 -3 52 -2 49 1 -3 3 -33 9 -67 12 l-62 6 56 1 c45 2 62
-2 80 -19z"/>
</g>
</svg>
